<mxfile host="app.diagrams.net" modified="2023-10-03T14:47:32.439Z" agent="Mozilla/5.0 (Windows NT 10.0; Win64; x64) AppleWebKit/537.36 (KHTML, like Gecko) Chrome/117.0.0.0 Safari/537.36" etag="fjuXe5HvcXcijV6PFq3Y" version="22.0.2" type="device">
  <diagram name="Page-1" id="niFAYI7-j2DZLFPBzeHO">
    <mxGraphModel dx="869" dy="459" grid="1" gridSize="10" guides="1" tooltips="1" connect="1" arrows="1" fold="1" page="1" pageScale="1" pageWidth="827" pageHeight="1169" math="0" shadow="0">
      <root>
        <mxCell id="0" />
        <mxCell id="1" parent="0" />
        <mxCell id="huWjjuCk4hPInq8IUZ5Y-1" value="Evenements" style="swimlane;fontStyle=0;childLayout=stackLayout;horizontal=1;startSize=30;horizontalStack=0;resizeParent=1;resizeParentMax=0;resizeLast=0;collapsible=1;marginBottom=0;whiteSpace=wrap;html=1;fillColor=#fff2cc;gradientColor=#ffd966;strokeColor=#d6b656;" parent="1" vertex="1">
          <mxGeometry x="669" y="240" width="140" height="270" as="geometry" />
        </mxCell>
        <mxCell id="huWjjuCk4hPInq8IUZ5Y-2" value="n°evenement" style="text;strokeColor=none;fillColor=none;align=left;verticalAlign=middle;spacingLeft=4;spacingRight=4;overflow=hidden;points=[[0,0.5],[1,0.5]];portConstraint=eastwest;rotatable=0;whiteSpace=wrap;html=1;" parent="huWjjuCk4hPInq8IUZ5Y-1" vertex="1">
          <mxGeometry y="30" width="140" height="30" as="geometry" />
        </mxCell>
        <mxCell id="huWjjuCk4hPInq8IUZ5Y-3" value="titre" style="text;strokeColor=none;fillColor=none;align=left;verticalAlign=middle;spacingLeft=4;spacingRight=4;overflow=hidden;points=[[0,0.5],[1,0.5]];portConstraint=eastwest;rotatable=0;whiteSpace=wrap;html=1;" parent="huWjjuCk4hPInq8IUZ5Y-1" vertex="1">
          <mxGeometry y="60" width="140" height="30" as="geometry" />
        </mxCell>
        <mxCell id="huWjjuCk4hPInq8IUZ5Y-4" value="date" style="text;strokeColor=none;fillColor=none;align=left;verticalAlign=middle;spacingLeft=4;spacingRight=4;overflow=hidden;points=[[0,0.5],[1,0.5]];portConstraint=eastwest;rotatable=0;whiteSpace=wrap;html=1;" parent="huWjjuCk4hPInq8IUZ5Y-1" vertex="1">
          <mxGeometry y="90" width="140" height="30" as="geometry" />
        </mxCell>
        <mxCell id="huWjjuCk4hPInq8IUZ5Y-5" value="heure" style="text;strokeColor=none;fillColor=none;align=left;verticalAlign=middle;spacingLeft=4;spacingRight=4;overflow=hidden;points=[[0,0.5],[1,0.5]];portConstraint=eastwest;rotatable=0;whiteSpace=wrap;html=1;" parent="huWjjuCk4hPInq8IUZ5Y-1" vertex="1">
          <mxGeometry y="120" width="140" height="30" as="geometry" />
        </mxCell>
        <mxCell id="huWjjuCk4hPInq8IUZ5Y-10" value="durée" style="text;strokeColor=none;fillColor=none;align=left;verticalAlign=middle;spacingLeft=4;spacingRight=4;overflow=hidden;points=[[0,0.5],[1,0.5]];portConstraint=eastwest;rotatable=0;whiteSpace=wrap;html=1;" parent="huWjjuCk4hPInq8IUZ5Y-1" vertex="1">
          <mxGeometry y="150" width="140" height="30" as="geometry" />
        </mxCell>
        <mxCell id="huWjjuCk4hPInq8IUZ5Y-34" value="prix" style="text;strokeColor=none;fillColor=none;align=left;verticalAlign=middle;spacingLeft=4;spacingRight=4;overflow=hidden;points=[[0,0.5],[1,0.5]];portConstraint=eastwest;rotatable=0;whiteSpace=wrap;html=1;" parent="huWjjuCk4hPInq8IUZ5Y-1" vertex="1">
          <mxGeometry y="180" width="140" height="30" as="geometry" />
        </mxCell>
        <mxCell id="huWjjuCk4hPInq8IUZ5Y-35" value="résumé" style="text;strokeColor=none;fillColor=none;align=left;verticalAlign=middle;spacingLeft=4;spacingRight=4;overflow=hidden;points=[[0,0.5],[1,0.5]];portConstraint=eastwest;rotatable=0;whiteSpace=wrap;html=1;" parent="huWjjuCk4hPInq8IUZ5Y-1" vertex="1">
          <mxGeometry y="210" width="140" height="30" as="geometry" />
        </mxCell>
        <mxCell id="huWjjuCk4hPInq8IUZ5Y-36" value="categorie_id" style="text;strokeColor=none;fillColor=none;align=left;verticalAlign=middle;spacingLeft=4;spacingRight=4;overflow=hidden;points=[[0,0.5],[1,0.5]];portConstraint=eastwest;rotatable=0;whiteSpace=wrap;html=1;" parent="huWjjuCk4hPInq8IUZ5Y-1" vertex="1">
          <mxGeometry y="240" width="140" height="30" as="geometry" />
        </mxCell>
        <mxCell id="huWjjuCk4hPInq8IUZ5Y-6" value="Utilisateurs" style="swimlane;fontStyle=0;childLayout=stackLayout;horizontal=1;startSize=30;horizontalStack=0;resizeParent=1;resizeParentMax=0;resizeLast=0;collapsible=1;marginBottom=0;whiteSpace=wrap;html=1;fillColor=#f5f5f5;gradientColor=#b3b3b3;strokeColor=#666666;" parent="1" vertex="1">
          <mxGeometry x="19" y="240" width="140" height="280" as="geometry" />
        </mxCell>
        <mxCell id="huWjjuCk4hPInq8IUZ5Y-8" value="n°utilisateur" style="text;strokeColor=none;fillColor=none;align=left;verticalAlign=middle;spacingLeft=4;spacingRight=4;overflow=hidden;points=[[0,0.5],[1,0.5]];portConstraint=eastwest;rotatable=0;whiteSpace=wrap;html=1;" parent="huWjjuCk4hPInq8IUZ5Y-6" vertex="1">
          <mxGeometry y="30" width="140" height="30" as="geometry" />
        </mxCell>
        <mxCell id="huWjjuCk4hPInq8IUZ5Y-12" value="nom" style="text;strokeColor=none;fillColor=none;align=left;verticalAlign=middle;spacingLeft=4;spacingRight=4;overflow=hidden;points=[[0,0.5],[1,0.5]];portConstraint=eastwest;rotatable=0;whiteSpace=wrap;html=1;" parent="huWjjuCk4hPInq8IUZ5Y-6" vertex="1">
          <mxGeometry y="60" width="140" height="30" as="geometry" />
        </mxCell>
        <mxCell id="huWjjuCk4hPInq8IUZ5Y-13" value="prenom" style="text;strokeColor=none;fillColor=none;align=left;verticalAlign=middle;spacingLeft=4;spacingRight=4;overflow=hidden;points=[[0,0.5],[1,0.5]];portConstraint=eastwest;rotatable=0;whiteSpace=wrap;html=1;" parent="huWjjuCk4hPInq8IUZ5Y-6" vertex="1">
          <mxGeometry y="90" width="140" height="30" as="geometry" />
        </mxCell>
        <mxCell id="huWjjuCk4hPInq8IUZ5Y-14" value="pseudo" style="text;strokeColor=none;fillColor=none;align=left;verticalAlign=middle;spacingLeft=4;spacingRight=4;overflow=hidden;points=[[0,0.5],[1,0.5]];portConstraint=eastwest;rotatable=0;whiteSpace=wrap;html=1;" parent="huWjjuCk4hPInq8IUZ5Y-6" vertex="1">
          <mxGeometry y="120" width="140" height="30" as="geometry" />
        </mxCell>
        <mxCell id="huWjjuCk4hPInq8IUZ5Y-15" value="email" style="text;strokeColor=none;fillColor=none;align=left;verticalAlign=middle;spacingLeft=4;spacingRight=4;overflow=hidden;points=[[0,0.5],[1,0.5]];portConstraint=eastwest;rotatable=0;whiteSpace=wrap;html=1;" parent="huWjjuCk4hPInq8IUZ5Y-6" vertex="1">
          <mxGeometry y="150" width="140" height="30" as="geometry" />
        </mxCell>
        <mxCell id="huWjjuCk4hPInq8IUZ5Y-9" value="mot de passe" style="text;strokeColor=none;fillColor=none;align=left;verticalAlign=middle;spacingLeft=4;spacingRight=4;overflow=hidden;points=[[0,0.5],[1,0.5]];portConstraint=eastwest;rotatable=0;whiteSpace=wrap;html=1;" parent="huWjjuCk4hPInq8IUZ5Y-6" vertex="1">
          <mxGeometry y="180" width="140" height="30" as="geometry" />
        </mxCell>
        <mxCell id="huWjjuCk4hPInq8IUZ5Y-47" value="&lt;div style=&quot;text-align: center;&quot;&gt;&lt;span style=&quot;background-color: initial;&quot;&gt;role (&lt;font color=&quot;#00cccc&quot;&gt;&lt;span style=&quot;font-size: 10px;&quot;&gt;&lt;i&gt;admin/client&lt;/i&gt;&lt;/span&gt;&lt;/font&gt;&lt;/span&gt;&lt;span style=&quot;background-color: initial;&quot;&gt;)&lt;/span&gt;&lt;/div&gt;" style="text;strokeColor=none;fillColor=none;align=left;verticalAlign=middle;spacingLeft=4;spacingRight=4;overflow=hidden;points=[[0,0.5],[1,0.5]];portConstraint=eastwest;rotatable=0;whiteSpace=wrap;html=1;" parent="huWjjuCk4hPInq8IUZ5Y-6" vertex="1">
          <mxGeometry y="210" width="140" height="30" as="geometry" />
        </mxCell>
        <mxCell id="huWjjuCk4hPInq8IUZ5Y-48" value="&lt;div style=&quot;&quot;&gt;&lt;span style=&quot;background-color: initial;&quot;&gt;statut (&lt;font color=&quot;#00cccc&quot;&gt;&lt;span style=&quot;font-size: 10px;&quot;&gt;&lt;i&gt;particulier / entreprise&lt;/i&gt;&lt;/span&gt;&lt;/font&gt;&lt;/span&gt;&lt;span style=&quot;background-color: initial;&quot;&gt;)&lt;/span&gt;&lt;/div&gt;" style="text;strokeColor=none;fillColor=none;align=left;verticalAlign=middle;spacingLeft=4;spacingRight=4;overflow=hidden;points=[[0,0.5],[1,0.5]];portConstraint=eastwest;rotatable=0;whiteSpace=wrap;html=1;" parent="huWjjuCk4hPInq8IUZ5Y-6" vertex="1">
          <mxGeometry y="240" width="140" height="40" as="geometry" />
        </mxCell>
        <mxCell id="huWjjuCk4hPInq8IUZ5Y-16" value="" style="endArrow=classic;html=1;rounded=0;exitX=1;exitY=0.987;exitDx=0;exitDy=0;exitPerimeter=0;entryX=-0.025;entryY=-0.008;entryDx=0;entryDy=0;entryPerimeter=0;" parent="1" source="huWjjuCk4hPInq8IUZ5Y-13" target="huWjjuCk4hPInq8IUZ5Y-5" edge="1">
          <mxGeometry width="50" height="50" relative="1" as="geometry">
            <mxPoint x="220.96000000000004" y="359.9999999999999" as="sourcePoint" />
            <mxPoint x="539" y="359.9999999999999" as="targetPoint" />
          </mxGeometry>
        </mxCell>
        <mxCell id="huWjjuCk4hPInq8IUZ5Y-18" value="1,n" style="text;html=1;align=center;verticalAlign=middle;resizable=0;points=[];autosize=1;strokeColor=none;fillColor=none;" parent="1" vertex="1">
          <mxGeometry x="209" y="319" width="40" height="30" as="geometry" />
        </mxCell>
        <mxCell id="huWjjuCk4hPInq8IUZ5Y-19" value="&lt;i style=&quot;font-size: 10px;&quot;&gt;&lt;font style=&quot;font-size: 10px;&quot; color=&quot;#00cccc&quot;&gt;un utilisateur, peut accéder &lt;br&gt;à 1 ou n événement&lt;/font&gt;&lt;/i&gt;" style="text;html=1;align=center;verticalAlign=middle;resizable=0;points=[];autosize=1;strokeColor=none;fillColor=none;" parent="1" vertex="1">
          <mxGeometry x="159" y="279" width="140" height="40" as="geometry" />
        </mxCell>
        <mxCell id="huWjjuCk4hPInq8IUZ5Y-20" value="1,n" style="text;html=1;align=center;verticalAlign=middle;resizable=0;points=[];autosize=1;strokeColor=none;fillColor=none;" parent="1" vertex="1">
          <mxGeometry x="574" y="319" width="40" height="30" as="geometry" />
        </mxCell>
        <mxCell id="huWjjuCk4hPInq8IUZ5Y-21" value="&lt;i style=&quot;font-size: 10px;&quot;&gt;&lt;font style=&quot;font-size: 10px;&quot; color=&quot;#00cccc&quot;&gt;un&amp;nbsp;&lt;/font&gt;&lt;/i&gt;&lt;i style=&quot;border-color: var(--border-color); font-size: 10px;&quot;&gt;&lt;font style=&quot;border-color: var(--border-color);&quot; color=&quot;#00cccc&quot;&gt;événement&lt;/font&gt;&lt;/i&gt;&lt;i style=&quot;font-size: 10px;&quot;&gt;&lt;font style=&quot;font-size: 10px;&quot; color=&quot;#00cccc&quot;&gt;, peut intéresser&lt;br&gt;&amp;nbsp; 1 ou n&amp;nbsp;&lt;/font&gt;&lt;/i&gt;&lt;i style=&quot;border-color: var(--border-color); font-size: 10px;&quot;&gt;&lt;font style=&quot;border-color: var(--border-color);&quot; color=&quot;#00cccc&quot;&gt;utilisateur&lt;/font&gt;&lt;/i&gt;" style="text;html=1;align=center;verticalAlign=middle;resizable=0;points=[];autosize=1;strokeColor=none;fillColor=none;" parent="1" vertex="1">
          <mxGeometry x="514" y="279" width="160" height="40" as="geometry" />
        </mxCell>
        <mxCell id="huWjjuCk4hPInq8IUZ5Y-22" value="" style="rounded=1;whiteSpace=wrap;html=1;arcSize=50;" parent="1" vertex="1">
          <mxGeometry x="279" y="300" width="280" height="170" as="geometry" />
        </mxCell>
        <mxCell id="huWjjuCk4hPInq8IUZ5Y-25" value="" style="endArrow=none;html=1;rounded=0;exitX=0.09;exitY=0.146;exitDx=0;exitDy=0;exitPerimeter=0;entryX=0.91;entryY=0.145;entryDx=0;entryDy=0;entryPerimeter=0;" parent="1" source="huWjjuCk4hPInq8IUZ5Y-22" target="huWjjuCk4hPInq8IUZ5Y-22" edge="1">
          <mxGeometry width="50" height="50" relative="1" as="geometry">
            <mxPoint x="296.6399999999999" y="324.67999999999984" as="sourcePoint" />
            <mxPoint x="540" y="326" as="targetPoint" />
          </mxGeometry>
        </mxCell>
        <mxCell id="huWjjuCk4hPInq8IUZ5Y-26" value="profil" style="text;html=1;align=center;verticalAlign=middle;resizable=0;points=[];autosize=1;strokeColor=none;fillColor=none;" parent="1" vertex="1">
          <mxGeometry x="388" y="297" width="50" height="30" as="geometry" />
        </mxCell>
        <mxCell id="huWjjuCk4hPInq8IUZ5Y-27" value="&lt;p style=&quot;line-height: 160%; font-size: 10px;&quot;&gt;&lt;font color=&quot;#333333&quot;&gt;n°utilisateurs_evenements&lt;br&gt;utilisateur_id&lt;br&gt;evenement_id&lt;br&gt;reservation&lt;br&gt;historique&lt;br&gt;favoris&lt;br&gt;annulation&lt;/font&gt;&lt;/p&gt;" style="text;html=1;align=left;verticalAlign=middle;resizable=0;points=[];autosize=1;" parent="1" vertex="1">
          <mxGeometry x="356" y="324" width="140" height="150" as="geometry" />
        </mxCell>
        <mxCell id="huWjjuCk4hPInq8IUZ5Y-28" value="categories" style="swimlane;fontStyle=0;childLayout=stackLayout;horizontal=1;startSize=30;horizontalStack=0;resizeParent=1;resizeParentMax=0;resizeLast=0;collapsible=1;marginBottom=0;whiteSpace=wrap;html=1;fillColor=#e6d0de;gradientColor=#d5739d;strokeColor=#996185;" parent="1" vertex="1">
          <mxGeometry x="669" y="840" width="140" height="180" as="geometry" />
        </mxCell>
        <mxCell id="huWjjuCk4hPInq8IUZ5Y-29" value="n°categorie" style="text;strokeColor=none;fillColor=none;align=left;verticalAlign=middle;spacingLeft=4;spacingRight=4;overflow=hidden;points=[[0,0.5],[1,0.5]];portConstraint=eastwest;rotatable=0;whiteSpace=wrap;html=1;" parent="huWjjuCk4hPInq8IUZ5Y-28" vertex="1">
          <mxGeometry y="30" width="140" height="30" as="geometry" />
        </mxCell>
        <mxCell id="huWjjuCk4hPInq8IUZ5Y-30" value="theatre" style="text;strokeColor=none;fillColor=none;align=left;verticalAlign=middle;spacingLeft=4;spacingRight=4;overflow=hidden;points=[[0,0.5],[1,0.5]];portConstraint=eastwest;rotatable=0;whiteSpace=wrap;html=1;" parent="huWjjuCk4hPInq8IUZ5Y-28" vertex="1">
          <mxGeometry y="60" width="140" height="30" as="geometry" />
        </mxCell>
        <mxCell id="huWjjuCk4hPInq8IUZ5Y-31" value="spectacle" style="text;strokeColor=none;fillColor=none;align=left;verticalAlign=middle;spacingLeft=4;spacingRight=4;overflow=hidden;points=[[0,0.5],[1,0.5]];portConstraint=eastwest;rotatable=0;whiteSpace=wrap;html=1;" parent="huWjjuCk4hPInq8IUZ5Y-28" vertex="1">
          <mxGeometry y="90" width="140" height="30" as="geometry" />
        </mxCell>
        <mxCell id="huWjjuCk4hPInq8IUZ5Y-32" value="Concert" style="text;strokeColor=none;fillColor=none;align=left;verticalAlign=middle;spacingLeft=4;spacingRight=4;overflow=hidden;points=[[0,0.5],[1,0.5]];portConstraint=eastwest;rotatable=0;whiteSpace=wrap;html=1;" parent="huWjjuCk4hPInq8IUZ5Y-28" vertex="1">
          <mxGeometry y="120" width="140" height="30" as="geometry" />
        </mxCell>
        <mxCell id="huWjjuCk4hPInq8IUZ5Y-33" value="Comédie musicale" style="text;strokeColor=none;fillColor=none;align=left;verticalAlign=middle;spacingLeft=4;spacingRight=4;overflow=hidden;points=[[0,0.5],[1,0.5]];portConstraint=eastwest;rotatable=0;whiteSpace=wrap;html=1;" parent="huWjjuCk4hPInq8IUZ5Y-28" vertex="1">
          <mxGeometry y="150" width="140" height="30" as="geometry" />
        </mxCell>
        <mxCell id="huWjjuCk4hPInq8IUZ5Y-38" value="" style="endArrow=classic;html=1;rounded=0;exitX=0.502;exitY=1.014;exitDx=0;exitDy=0;exitPerimeter=0;entryX=0.512;entryY=-0.004;entryDx=0;entryDy=0;entryPerimeter=0;" parent="1" source="huWjjuCk4hPInq8IUZ5Y-36" target="huWjjuCk4hPInq8IUZ5Y-28" edge="1">
          <mxGeometry width="50" height="50" relative="1" as="geometry">
            <mxPoint x="350" y="460" as="sourcePoint" />
            <mxPoint x="740" y="710" as="targetPoint" />
          </mxGeometry>
        </mxCell>
        <mxCell id="huWjjuCk4hPInq8IUZ5Y-39" value="1,1" style="text;html=1;align=center;verticalAlign=middle;resizable=0;points=[];autosize=1;strokeColor=none;fillColor=none;" parent="1" vertex="1">
          <mxGeometry x="640" y="583" width="40" height="30" as="geometry" />
        </mxCell>
        <mxCell id="huWjjuCk4hPInq8IUZ5Y-40" value="&lt;i style=&quot;font-size: 10px;&quot;&gt;&lt;font style=&quot;font-size: 10px;&quot; color=&quot;#00cccc&quot;&gt;un&amp;nbsp;&lt;/font&gt;&lt;/i&gt;&lt;i style=&quot;border-color: var(--border-color); font-size: 10px;&quot;&gt;&lt;font style=&quot;border-color: var(--border-color);&quot; color=&quot;#00cccc&quot;&gt;événement&lt;/font&gt;&lt;/i&gt;&lt;i style=&quot;font-size: 10px;&quot;&gt;&lt;font style=&quot;font-size: 10px;&quot; color=&quot;#00cccc&quot;&gt;, peut intéresser&lt;br&gt;&amp;nbsp; 1 ou n&amp;nbsp;&lt;/font&gt;&lt;/i&gt;&lt;i style=&quot;border-color: var(--border-color); font-size: 10px;&quot;&gt;&lt;font style=&quot;border-color: var(--border-color);&quot; color=&quot;#00cccc&quot;&gt;utilisateur&lt;/font&gt;&lt;/i&gt;" style="text;html=1;align=center;verticalAlign=middle;resizable=0;points=[];autosize=1;strokeColor=none;fillColor=none;" parent="1" vertex="1">
          <mxGeometry x="580" y="543" width="160" height="40" as="geometry" />
        </mxCell>
        <mxCell id="huWjjuCk4hPInq8IUZ5Y-41" value="1,n" style="text;html=1;align=center;verticalAlign=middle;resizable=0;points=[];autosize=1;strokeColor=none;fillColor=none;" parent="1" vertex="1">
          <mxGeometry x="640" y="795" width="40" height="30" as="geometry" />
        </mxCell>
        <mxCell id="huWjjuCk4hPInq8IUZ5Y-42" value="&lt;i style=&quot;font-size: 10px;&quot;&gt;&lt;font style=&quot;font-size: 10px;&quot; color=&quot;#00cccc&quot;&gt;une catégorie&lt;/font&gt;&lt;/i&gt;&lt;i style=&quot;font-size: 10px;&quot;&gt;&lt;font style=&quot;font-size: 10px;&quot; color=&quot;#00cccc&quot;&gt;, appartient à&lt;br&gt;&amp;nbsp; 1 ou n&amp;nbsp;&lt;/font&gt;&lt;/i&gt;&lt;i style=&quot;border-color: var(--border-color); font-size: 10px;&quot;&gt;&lt;font style=&quot;border-color: var(--border-color);&quot; color=&quot;#00cccc&quot;&gt;événements&lt;/font&gt;&lt;/i&gt;" style="text;html=1;align=center;verticalAlign=middle;resizable=0;points=[];autosize=1;strokeColor=none;fillColor=none;" parent="1" vertex="1">
          <mxGeometry x="590" y="755" width="140" height="40" as="geometry" />
        </mxCell>
        <mxCell id="huWjjuCk4hPInq8IUZ5Y-43" value="" style="ellipse;whiteSpace=wrap;html=1;aspect=fixed;" parent="1" vertex="1">
          <mxGeometry x="721" y="655" width="40" height="40" as="geometry" />
        </mxCell>
        <mxCell id="huWjjuCk4hPInq8IUZ5Y-46" value="SITE DE RESERVATION D&#39;EVENEMENTS" style="shape=process;whiteSpace=wrap;html=1;backgroundOutline=1;" parent="1" vertex="1">
          <mxGeometry x="200" y="40" width="440" height="30" as="geometry" />
        </mxCell>
        <mxCell id="wSys72QmziQknTz7GNzb-1" value="&lt;p style=&quot;line-height:1.38;margin-top:0pt;margin-bottom:0pt;&quot; dir=&quot;ltr&quot;&gt;&lt;/p&gt;&lt;p style=&quot;line-height:1.38;margin-top:0pt;margin-bottom:0pt;&quot; dir=&quot;ltr&quot;&gt;&lt;/p&gt;&lt;div&gt;&lt;/div&gt;&lt;span style=&quot;font-family: Arial, sans-serif; background-color: transparent; font-variant-numeric: normal; font-variant-east-asian: normal; font-variant-alternates: normal; font-variant-position: normal; vertical-align: baseline; font-size: 9px;&quot;&gt;&lt;span id=&quot;docs-internal-guid-3eaf1046-7fff-404b-623f-7b535a3fa58a&quot;&gt;&lt;/span&gt;&lt;div style=&quot;text-align: left;&quot;&gt;&lt;span style=&quot;background-color: transparent;&quot;&gt;Un site permettant à des particuliers de réserver un ou plusieurs évènements (théâtres, spectacles, etc)&lt;/span&gt;&lt;br&gt;&lt;/div&gt;&lt;/span&gt;&lt;span style=&quot;font-family: Arial, sans-serif; background-color: transparent; font-variant-numeric: normal; font-variant-east-asian: normal; font-variant-alternates: normal; font-variant-position: normal; vertical-align: baseline; font-size: 9px;&quot;&gt;&lt;font style=&quot;font-size: 9px;&quot;&gt;&lt;div style=&quot;text-align: left;&quot;&gt;&lt;span style=&quot;background-color: transparent;&quot;&gt;directement en ligne. Pour se faire, les utilisateurs peuvent créer un compte afin d’interagir sur la plateforme&lt;br&gt;(réserver, modifier, annuler leur réservation mais également accéder à leur historique, favoris et les différents&lt;br&gt;services…). Depuis la page d&#39;accueil, il est possible de visualiser et consulter les prochains évènements.&lt;/span&gt;&lt;/div&gt;&lt;/font&gt;&lt;/span&gt;&lt;span id=&quot;docs-internal-guid-d5c1408f-7fff-7828-96c9-785d76111d96&quot;&gt;&lt;/span&gt;&lt;span id=&quot;docs-internal-guid-3eaf1046-7fff-404b-623f-7b535a3fa58a&quot;&gt;&lt;/span&gt;&lt;span id=&quot;docs-internal-guid-3eaf1046-7fff-404b-623f-7b535a3fa58a&quot;&gt;&lt;/span&gt;&lt;p style=&quot;font-size: 9px;&quot;&gt;&lt;/p&gt;&lt;font style=&quot;font-size: 9px;&quot;&gt;&lt;div style=&quot;text-align: left;&quot;&gt;&lt;/div&gt;&lt;span id=&quot;docs-internal-guid-f7cdca87-7fff-dbe9-ae89-b4db3ca43535&quot;&gt;&lt;/span&gt;&lt;/font&gt;" style="text;html=1;align=center;verticalAlign=middle;resizable=0;points=[];autosize=1;strokeColor=none;fillColor=none;" vertex="1" parent="1">
          <mxGeometry x="189" y="90" width="460" height="70" as="geometry" />
        </mxCell>
      </root>
    </mxGraphModel>
  </diagram>
</mxfile>
